<mxfile host="Electron" agent="Mozilla/5.0 (Windows NT 10.0; Win64; x64) AppleWebKit/537.36 (KHTML, like Gecko) draw.io/24.7.17 Chrome/128.0.6613.36 Electron/32.0.1 Safari/537.36" version="24.7.17">
  <diagram name="Página-1" id="3KTbIHY7RBXSB3VM1-OG">
    <mxGraphModel dx="1050" dy="629" grid="1" gridSize="10" guides="1" tooltips="1" connect="1" arrows="1" fold="1" page="1" pageScale="1" pageWidth="827" pageHeight="1169" math="0" shadow="0">
      <root>
        <mxCell id="0" />
        <mxCell id="1" parent="0" />
        <mxCell id="PJNozq71vUNm7PbM0cyr-1" value="PERSONA" style="whiteSpace=wrap;html=1;align=center;" parent="1" vertex="1">
          <mxGeometry x="160" y="40" width="90" height="40" as="geometry" />
        </mxCell>
        <mxCell id="PJNozq71vUNm7PbM0cyr-2" value="CLIENTES" style="whiteSpace=wrap;html=1;align=center;" parent="1" vertex="1">
          <mxGeometry x="30" y="240" width="90" height="40" as="geometry" />
        </mxCell>
        <mxCell id="PJNozq71vUNm7PbM0cyr-3" value="EMPLEADOS" style="whiteSpace=wrap;html=1;align=center;" parent="1" vertex="1">
          <mxGeometry x="290" y="240" width="110" height="40" as="geometry" />
        </mxCell>
        <mxCell id="PJNozq71vUNm7PbM0cyr-4" value="" style="triangle;whiteSpace=wrap;html=1;rotation=90;" parent="1" vertex="1">
          <mxGeometry x="175" y="150" width="60" height="80" as="geometry" />
        </mxCell>
        <mxCell id="ixOfF35JQGkhWXKDXIAY-1" value="Generalización" style="text;html=1;align=left;verticalAlign=middle;whiteSpace=wrap;rounded=0;" vertex="1" parent="1">
          <mxGeometry x="50" y="120" width="150" height="30" as="geometry" />
        </mxCell>
        <mxCell id="ixOfF35JQGkhWXKDXIAY-3" value="" style="endArrow=none;html=1;rounded=0;entryX=0.5;entryY=0;entryDx=0;entryDy=0;exitX=0.25;exitY=0;exitDx=0;exitDy=0;" edge="1" parent="1" source="PJNozq71vUNm7PbM0cyr-3" target="PJNozq71vUNm7PbM0cyr-4">
          <mxGeometry width="50" height="50" relative="1" as="geometry">
            <mxPoint x="410" y="270" as="sourcePoint" />
            <mxPoint x="460" y="220" as="targetPoint" />
          </mxGeometry>
        </mxCell>
        <mxCell id="ixOfF35JQGkhWXKDXIAY-4" value="" style="endArrow=none;html=1;rounded=0;entryX=0.5;entryY=1;entryDx=0;entryDy=0;exitX=0.75;exitY=0;exitDx=0;exitDy=0;" edge="1" parent="1" source="PJNozq71vUNm7PbM0cyr-2" target="PJNozq71vUNm7PbM0cyr-4">
          <mxGeometry width="50" height="50" relative="1" as="geometry">
            <mxPoint x="328" y="250" as="sourcePoint" />
            <mxPoint x="235" y="200" as="targetPoint" />
          </mxGeometry>
        </mxCell>
        <mxCell id="ixOfF35JQGkhWXKDXIAY-5" value="" style="endArrow=none;html=1;rounded=0;exitX=0.5;exitY=1;exitDx=0;exitDy=0;edgeStyle=orthogonalEdgeStyle;verticalAlign=bottom;entryX=0;entryY=0.5;entryDx=0;entryDy=0;" edge="1" parent="1" source="PJNozq71vUNm7PbM0cyr-1" target="PJNozq71vUNm7PbM0cyr-4">
          <mxGeometry relative="1" as="geometry">
            <mxPoint x="300" y="120" as="sourcePoint" />
            <mxPoint x="210" y="170" as="targetPoint" />
          </mxGeometry>
        </mxCell>
      </root>
    </mxGraphModel>
  </diagram>
</mxfile>
